<?xml version="1.0" standalone="no"?>
<!DOCTYPE svg PUBLIC "-//W3C//DTD SVG 20010904//EN"
 "http://www.w3.org/TR/2001/REC-SVG-20010904/DTD/svg10.dtd">
<svg version="1.0" xmlns="http://www.w3.org/2000/svg"
 width="800.000000pt" height="416.000000pt" viewBox="0 0 800.000000 416.000000"
 preserveAspectRatio="xMidYMid meet">
<metadata>
Created by potrace 1.16, written by Peter Selinger 2001-2019
</metadata>
<g transform="translate(0.000000,416.000000) scale(0.100000,-0.100000)"
fill="#000000" stroke="none">
<path d="M450 4154 c0 -4 13 -45 29 -93 42 -121 51 -191 51 -392 0 -159 -2
-179 -19 -201 -11 -13 -23 -37 -26 -51 -4 -15 -11 -30 -16 -33 -5 -3 -7 -10
-4 -15 4 -5 -1 -9 -9 -9 -9 0 -16 7 -16 16 0 14 -3 14 -15 4 -16 -13 -20 -36
-7 -43 4 -2 2 -2 -5 -1 -6 2 -14 -4 -17 -12 -9 -24 -7 -84 3 -84 5 0 7 -8 4
-18 -6 -26 57 -179 117 -283 55 -95 60 -123 29 -162 -24 -31 -100 -67 -138
-66 -20 1 -22 2 -6 6 34 8 42 23 21 39 -31 23 -112 16 -145 -12 -6 -5 27 -34
38 -34 6 0 11 -5 11 -12 0 -6 10 -3 22 8 l22 19 -18 -29 c-16 -25 -16 -28 -2
-23 14 6 16 -5 16 -83 l0 -90 -42 -41 c-37 -35 -42 -45 -40 -80 2 -31 -2 -44
-24 -64 -15 -14 -32 -25 -39 -25 -29 0 -40 -33 -40 -124 -1 -134 -39 -193
-140 -214 l-40 -8 -3 -509 -2 -510 40 -80 c22 -44 44 -102 49 -128 10 -54 3
-175 -10 -183 -5 -3 -9 -2 -10 3 -1 11 -6 33 -14 66 -4 17 -3 27 3 27 13 0
-10 83 -28 105 -20 24 -30 7 -30 -53 0 -58 2 -62 70 -168 l25 -39 3 28 c2 16
15 36 32 49 16 11 52 49 80 84 82 101 209 194 264 194 44 0 44 -50 1 -161 -4
-11 3 -15 27 -16 97 -2 214 -45 288 -104 74 -60 131 -99 181 -124 74 -38 258
-97 280 -90 11 4 19 2 19 -4 0 -6 4 -11 10 -11 5 0 7 8 3 18 -4 11 0 10 11 -5
13 -17 27 -23 55 -23 37 0 83 -32 68 -46 -4 -4 9 -15 28 -25 41 -22 46 -23 42
-6 -1 8 8 11 25 9 23 -2 27 0 21 15 -3 10 -10 23 -14 29 -12 14 -1 24 26 24
52 0 52 55 -2 129 -32 45 -97 91 -128 90 -19 0 -19 -1 3 -9 35 -14 26 -19 -13
-7 -25 7 -32 13 -23 19 9 6 6 8 -7 4 -12 -3 -34 3 -55 17 l-35 22 58 3 c60 3
80 -4 215 -78 87 -47 119 -77 151 -141 23 -47 31 -76 31 -116 0 -63 -15 -63
-22 0 -3 27 -19 64 -41 98 -40 61 -91 122 -84 99 30 -87 94 -222 118 -249 9
-10 25 -33 34 -52 10 -19 38 -58 62 -87 l45 -52 2138 0 2138 0 13 32 c7 18 43
78 79 133 36 55 72 120 79 145 22 75 66 163 106 208 34 39 171 129 181 119 10
-10 -10 -37 -28 -37 -14 0 -18 -6 -16 -23 2 -16 -2 -22 -17 -23 -38 -2 -43 -4
-74 -36 -36 -37 -39 -48 -11 -48 23 0 24 -1 9 -50 -8 -26 -8 -43 -1 -56 9 -16
12 -15 38 13 16 16 43 48 61 70 28 35 39 41 84 47 29 4 94 25 145 47 102 43
119 46 168 25 45 -19 51 -32 29 -64 -16 -24 -24 -27 -74 -27 -45 0 -66 -6
-104 -30 -40 -25 -53 -41 -76 -95 -24 -56 -28 -79 -29 -161 0 -59 -6 -113 -15
-139 -8 -23 -15 -44 -15 -46 0 -2 68 -3 150 -3 111 0 150 3 150 12 0 7 -5 44
-11 82 -37 258 147 470 437 503 l79 9 -65 3 c-55 1 -60 3 -36 10 56 17 173
-13 297 -75 43 -22 49 -29 49 -57 0 -25 9 -13 53 73 29 57 87 154 129 216 42
61 83 131 90 155 10 33 13 178 13 650 0 333 -3 609 -6 612 -9 9 -69 -5 -69
-16 0 -5 8 -8 18 -7 37 3 35 -2 -7 -27 -46 -28 -60 -23 -61 21 -1 17 -2 18
-13 5 -7 -8 -21 -15 -32 -16 -11 0 -36 -3 -55 -6 -19 -4 -29 -4 -22 -1 6 2 12
9 12 15 0 6 -7 5 -16 -3 -13 -10 -17 -10 -25 2 -5 8 -9 9 -9 3 0 -6 13 -23 30
-37 25 -23 39 -27 92 -28 52 0 59 -2 38 -10 -14 -6 -47 -10 -74 -11 -83 0
-142 46 -157 126 -10 50 0 154 12 134 7 -10 9 -8 9 5 0 10 -6 24 -13 32 -7 7
-24 26 -38 42 -13 16 -32 32 -40 35 -25 10 -29 45 -10 70 15 18 31 22 103 26
56 3 93 0 108 -8 22 -12 22 -11 16 16 -4 16 -8 29 -9 29 -1 0 -12 6 -24 13
-14 7 -23 8 -23 2 0 -15 -60 -12 -127 5 -71 19 -87 19 -80 1 7 -17 -22 -31
-36 -17 -13 13 -10 112 3 125 5 5 10 24 10 42 0 28 3 32 37 37 53 9 93 51 93
99 0 50 -16 49 -24 -1 -5 -31 -11 -40 -31 -43 -13 -3 -22 -2 -20 2 8 12 -134
11 -157 -1 -15 -8 -22 -8 -28 1 -6 9 -9 9 -15 1 -4 -7 -16 -9 -27 -5 -14 4
-18 2 -14 -5 4 -6 16 -11 27 -11 10 0 19 -4 19 -10 0 -13 -26 -13 -51 0 -25
14 -52 68 -51 101 0 15 9 44 20 66 11 21 33 79 50 128 16 50 46 124 65 165 55
117 53 139 -12 171 -59 29 -71 51 -71 129 0 57 -1 60 -24 60 -14 0 -28 5 -31
10 -4 7 4 9 24 5 29 -5 30 -4 40 47 6 29 16 90 22 134 11 76 11 83 -7 101 -10
11 -27 23 -36 26 -21 7 -24 27 -5 27 6 1 0 8 -16 16 -15 8 -27 21 -27 28 0 7
-9 21 -20 31 -31 28 -24 39 9 15 36 -25 111 -52 127 -46 6 2 16 24 22 49 7 24
14 52 18 61 6 15 -262 16 -3475 16 -1915 0 -3481 -3 -3481 -6z m4730 -244 c0
-19 -5 -30 -14 -30 -8 0 -16 -7 -20 -15 -4 -10 1 -15 14 -15 16 0 20 -7 20
-30 0 -23 -4 -30 -20 -30 -18 0 -20 -7 -20 -85 l0 -85 -35 0 -35 0 0 85 c0 69
-3 85 -15 85 -9 0 -15 9 -15 25 0 14 7 28 15 31 8 4 15 15 15 26 0 30 45 68
80 68 27 0 30 -3 30 -30z m-1890 -32 c4 -39 8 -46 20 -38 28 18 78 11 107 -14
26 -23 28 -30 31 -115 l4 -91 -41 0 -41 0 0 69 c0 84 -6 101 -34 101 -37 0
-46 -19 -46 -97 l0 -73 -40 0 c-39 0 -40 1 -36 33 3 17 5 87 5 155 l1 123 33
-3 c30 -3 32 -5 37 -50z m-110 2 c0 -28 -3 -30 -35 -30 l-35 0 0 -115 0 -115
-40 0 -40 0 0 114 0 115 -37 3 c-36 3 -43 13 -34 53 1 3 51 5 111 5 l110 0 0
-30z m856 -3 c40 -47 26 -121 -26 -139 -8 -2 -2 -20 19 -56 17 -29 31 -55 31
-57 0 -3 -17 -5 -38 -5 -36 0 -41 3 -66 50 -38 69 -46 70 -46 6 l0 -56 -35 0
-35 0 0 146 0 146 86 -3 c79 -4 87 -6 110 -32z m-357 -56 c25 -23 31 -37 31
-70 l0 -41 -82 0 -82 0 21 -22 c19 -19 26 -20 48 -10 14 7 42 12 61 12 l35 0
-21 -30 c-12 -17 -37 -34 -60 -41 -100 -30 -184 76 -135 171 22 42 53 60 106
60 38 0 53 -6 78 -29z m501 -86 l0 -115 -35 0 -35 0 0 115 0 115 35 0 35 0 0
-115z m204 94 c35 -28 35 -59 -1 -59 -14 0 -34 7 -44 16 -18 16 -49 13 -49 -4
0 -5 24 -18 52 -28 65 -24 89 -61 64 -99 -22 -34 -77 -50 -121 -35 -32 10 -65
42 -65 62 0 12 58 9 79 -4 20 -12 56 -4 46 12 -3 5 -23 14 -43 20 -49 13 -69
29 -77 62 -16 65 97 106 159 57z m249 1 c28 -22 52 -82 43 -106 -5 -13 -21
-15 -81 -12 -54 2 -75 0 -75 -9 0 -21 37 -35 60 -23 12 6 37 10 56 8 l36 -3
-22 -27 c-31 -40 -86 -54 -132 -35 -77 32 -97 134 -39 196 25 27 36 31 79 31
34 0 57 -6 75 -20z m338 4 c59 -30 74 -120 29 -177 -45 -57 -145 -57 -189 0
-23 29 -28 96 -10 136 24 52 109 73 170 41z m-611 -719 l0 -195 -25 0 c-19 0
-25 5 -25 21 l0 20 -26 -20 c-81 -64 -208 -8 -216 95 -5 69 2 95 35 130 28 31
42 37 85 42 40 3 59 0 87 -16 l35 -21 0 69 c0 68 1 70 25 70 l25 0 0 -195z
m930 125 l0 -69 35 21 c53 30 126 22 168 -20 27 -27 32 -40 35 -96 4 -54 1
-71 -17 -99 -40 -66 -135 -83 -195 -36 l-26 20 0 -20 c0 -16 -6 -21 -25 -21
l-25 0 0 195 0 195 25 0 c24 0 25 -2 25 -70z m-3570 -30 l0 -80 95 0 95 0 0
81 c0 78 1 80 23 77 22 -3 22 -5 24 -185 l2 -183 -25 0 c-23 0 -24 2 -24 80
l0 80 -95 0 -95 0 0 -80 c0 -79 0 -80 -25 -80 l-25 0 0 185 0 185 25 0 c25 0
25 -1 25 -80z m3033 68 c85 -26 102 -124 31 -185 l-37 -33 38 -62 c21 -35 40
-66 42 -70 2 -5 -9 -8 -26 -8 -26 0 -34 8 -72 75 -37 65 -47 75 -71 75 l-28 0
0 -75 c0 -73 -1 -75 -25 -75 l-25 0 0 185 0 185 66 0 c37 0 85 -5 107 -12z
m1238 -10 c1 -7 2 -22 3 -33 1 -16 9 -21 39 -23 28 -2 37 -8 37 -22 0 -14 -9
-20 -37 -22 l-38 -3 -2 -79 c-2 -101 7 -126 47 -126 23 0 30 -4 30 -20 0 -17
-7 -20 -42 -20 -69 0 -78 16 -78 137 0 96 -2 105 -20 110 -11 3 -20 14 -20 24
0 12 7 19 20 19 16 0 20 7 20 35 0 28 4 35 20 35 11 0 21 -6 21 -12z m-3909
-162 c4 -123 16 -146 80 -146 66 0 78 22 78 145 l0 105 25 0 25 0 0 -145 0
-145 -25 0 c-17 0 -25 6 -25 17 0 15 -1 15 -18 0 -30 -27 -92 -31 -130 -7 -48
29 -62 73 -62 185 0 94 0 95 24 95 24 0 24 -2 28 -104z m338 89 c0 -19 9 -19
34 0 38 29 143 11 160 -27 5 -11 7 -11 12 0 9 20 60 42 98 42 90 0 116 -43
116 -189 l0 -101 -25 0 -25 0 0 104 c0 101 -1 105 -26 125 -30 24 -71 27 -96
7 -28 -21 -38 -62 -38 -152 0 -83 0 -84 -25 -84 l-25 0 0 102 c0 91 -2 104
-22 125 -30 32 -77 31 -108 -2 -22 -23 -25 -37 -28 -125 -4 -98 -5 -100 -28
-100 l-24 0 0 145 0 145 25 0 c16 0 25 -6 25 -15z m693 -5 c32 -25 37 -25 37
1 0 15 5 20 23 17 22 -3 22 -6 23 -145 l1 -143 -28 0 c-22 0 -26 4 -22 20 3
11 0 20 -6 20 -6 0 -11 -4 -11 -8 0 -5 -18 -17 -39 -27 -102 -46 -204 42 -187
161 11 82 56 123 137 124 32 0 54 -6 72 -20z m213 5 c5 -13 8 -13 27 0 12 8
43 15 69 15 89 0 117 -50 118 -212 0 -77 0 -78 -25 -78 -25 0 -25 1 -25 84 0
92 -13 141 -40 156 -31 16 -67 11 -95 -13 -26 -22 -27 -26 -26 -125 l1 -102
-30 0 -30 0 0 138 c0 76 3 142 7 145 12 12 44 7 49 -8z m507 -10 c84 -63 69
-212 -26 -256 -54 -24 -81 -24 -133 1 -98 48 -105 202 -11 261 41 26 130 22
170 -6z m1274 5 c85 -52 94 -172 18 -239 -47 -41 -95 -49 -153 -25 -59 25 -86
69 -86 140 0 86 57 144 144 144 27 0 58 -8 77 -20z m700 0 c84 -51 85 -199 0
-254 -61 -41 -156 -24 -199 34 -54 74 -24 198 57 231 37 15 109 10 142 -11z
m482 5 c28 -14 41 -33 41 -61 0 -22 -31 -16 -56 11 -39 42 -112 27 -102 -22 2
-12 27 -26 73 -43 86 -31 107 -62 82 -116 -21 -43 -74 -61 -134 -45 -38 10
-83 50 -83 72 0 16 58 10 64 -6 14 -38 95 -38 110 1 10 25 -8 40 -74 58 -65
18 -90 43 -90 89 0 45 40 77 95 77 25 0 59 -7 74 -15z m717 -379 c218 -70 390
-248 444 -462 47 -181 2 -494 -71 -494 -26 0 -64 45 -79 94 -7 22 -17 44 -22
47 -6 4 -5 48 2 123 7 64 11 162 8 219 -3 88 -7 110 -32 162 -91 186 -296 242
-536 148 -114 -45 -190 -113 -190 -170 0 -28 33 -67 86 -104 40 -27 47 -29 57
-15 11 14 17 12 60 -15 26 -17 47 -36 47 -41 0 -6 -7 -5 -15 2 -12 10 -15 10
-15 0 0 -10 -3 -10 -15 0 -8 7 -28 10 -45 8 -22 -3 -30 -1 -30 11 -1 23 -100
-150 -100 -173 0 -11 21 -47 47 -79 43 -56 46 -63 45 -116 0 -31 -4 -82 -8
-115 -6 -58 -6 -58 47 -135 29 -42 56 -78 59 -81 50 -37 30 -194 -30 -238 -16
-13 -32 -22 -35 -22 -3 0 -15 -9 -27 -19 -11 -11 -25 -18 -30 -15 -10 6 -38
-11 -77 -45 -14 -12 -30 -19 -37 -17 -7 3 -11 0 -8 -7 2 -7 -10 -21 -28 -31
-18 -11 -37 -26 -41 -33 -6 -11 -12 -11 -22 -3 -10 8 -15 8 -21 -1 -5 -8 -3
-9 6 -4 8 5 11 3 8 -6 -5 -16 -101 -66 -141 -74 -23 -5 -26 -9 -18 -19 9 -10
8 -15 -4 -20 -10 -4 -15 1 -15 14 0 24 -15 26 -24 4 -5 -13 -9 -14 -20 -5 -11
9 -15 8 -20 -5 -9 -24 2 -35 30 -28 14 4 24 2 24 -5 0 -6 -19 -11 -46 -11 -37
0 -51 5 -75 29 -25 25 -29 37 -29 85 0 30 5 58 11 61 6 5 2 13 -11 22 -12 8
-19 21 -16 29 3 8 0 11 -8 8 -17 -6 -40 22 -33 40 8 21 80 38 122 30 21 -4 35
-2 35 4 0 19 -28 32 -58 26 -16 -3 -47 -1 -68 6 -32 11 -39 10 -49 -3 -10 -14
-12 -14 -22 2 -9 14 -8 32 0 70 7 29 14 51 17 50 29 -12 90 57 73 84 -5 8 -9
3 -13 -13 -6 -23 -10 -25 -70 -25 -69 0 -91 -4 -101 -19 -11 -14 -38 1 -51 29
-9 21 -9 33 1 58 7 18 22 57 33 87 11 30 31 79 44 107 40 90 40 97 -1 123 -20
12 -41 34 -46 47 -10 28 21 271 47 361 41 146 180 299 346 383 237 120 553
160 754 95z m-5707 -33 c104 -20 250 -74 339 -125 144 -82 279 -233 332 -373
19 -49 24 -85 27 -195 4 -128 3 -137 -21 -185 -14 -27 -26 -43 -26 -35 0 11
-4 10 -16 -5 -26 -34 -12 -106 40 -209 25 -50 46 -102 46 -114 0 -23 -50 -62
-80 -62 -13 0 -13 1 0 10 12 7 10 11 -10 18 -31 11 -74 0 -78 -20 -3 -17 31
-31 45 -17 4 4 8 -21 7 -56 -1 -65 -16 -100 -40 -91 -9 3 -11 -1 -7 -12 6 -16
5 -16 -13 -1 -22 19 -174 37 -174 21 0 -12 49 -22 105 -22 49 0 90 -26 80 -51
-8 -22 -50 -40 -72 -32 -15 5 -16 4 -7 -8 16 -20 25 -74 18 -109 -18 -86 -95
-102 -231 -49 -109 42 -252 120 -262 142 -2 5 -14 13 -28 18 -14 5 -23 12 -20
16 4 3 -9 18 -28 33 -19 15 -32 30 -29 33 11 11 -50 56 -68 51 -12 -4 -15 0
-11 16 4 16 2 19 -13 14 -16 -6 -17 -5 -6 7 17 18 15 30 -3 23 -10 -4 -15 0
-15 11 0 14 -3 15 -14 6 -11 -9 -12 -2 -9 41 3 29 10 69 17 88 7 19 11 41 9
48 -7 20 8 14 33 -14 32 -33 31 -20 -1 18 -14 16 -25 37 -25 46 0 9 -8 26 -17
37 -14 18 -15 18 -9 2 15 -44 18 -67 8 -67 -6 0 -12 -6 -14 -14 -2 -8 -11 1
-21 21 -9 19 -13 32 -8 29 12 -8 18 12 16 54 -1 19 0 29 2 23 7 -20 22 -15 20
6 0 10 -9 24 -19 30 -16 10 -18 7 -19 -21 0 -18 -9 -46 -20 -63 -10 -16 -23
-39 -28 -51 -5 -11 -23 -27 -40 -34 -27 -11 -35 -10 -73 13 -75 44 -126 95
-157 159 -58 115 -34 217 62 266 42 22 52 24 85 14 47 -15 122 -83 122 -111 0
-11 5 -21 10 -21 6 0 10 -7 10 -15 0 -8 4 -15 9 -15 6 0 12 -15 14 -32 2 -22
4 -15 5 21 2 48 6 57 46 98 79 80 84 131 18 218 -50 66 -123 120 -186 137 -30
9 -52 21 -54 30 -2 9 11 39 28 67 47 81 38 121 -29 121 -20 0 -49 -7 -65 -15
-45 -24 -43 -10 4 21 28 19 59 29 97 32 35 3 50 8 41 13 -23 15 73 10 136 -6
164 -43 302 -161 381 -326 19 -40 35 -68 35 -61 0 24 -55 129 -97 183 -62 82
-127 136 -218 179 -129 61 -251 81 -373 60 -249 -42 -437 -369 -386 -671 16
-92 36 -159 46 -153 4 3 8 -2 8 -12 0 -9 17 -32 37 -50 20 -19 34 -34 30 -34
-4 0 -2 -10 4 -22 11 -19 8 -19 -22 6 -89 75 -144 209 -156 376 -17 253 159
534 404 646 178 82 337 98 542 57z m2771 -328 l0 -155 -41 0 c-24 0 -38 4 -34
10 8 14 3 13 -34 -6 -26 -13 -37 -13 -67 -4 -51 17 -76 61 -71 128 6 86 66
129 139 99 l34 -14 -4 33 c-6 51 3 64 43 64 l35 0 0 -155z m-570 -10 l0 -145
-35 0 -35 0 0 145 0 145 35 0 35 0 0 -145z m1225 115 c0 -18 6 -26 23 -28 30
-4 33 -62 3 -62 -14 0 -20 -9 -22 -32 -6 -54 0 -78 22 -78 14 0 19 -7 19 -30
0 -28 -3 -30 -37 -30 -60 0 -83 30 -83 107 0 49 -3 63 -15 63 -10 0 -15 10
-15 29 0 16 6 31 15 35 8 3 15 17 15 31 0 24 3 26 38 23 32 -3 37 -6 37 -28z
m2197 -41 c32 -33 58 -64 58 -69 0 -5 -21 -18 -46 -30 -26 -11 -66 -38 -90
-60 l-43 -40 -61 41 c-43 29 -67 38 -82 33 -14 -4 -18 -2 -14 5 4 6 3 11 -3
11 -5 0 -11 -6 -14 -12 -2 -7 -4 1 -3 19 1 18 5 28 10 23 4 -4 36 20 70 55 57
58 97 81 146 84 8 1 40 -26 72 -60z m80 40 c29 -11 72 -36 95 -55 40 -33 41
-36 31 -62 -7 -15 -13 -28 -14 -30 -1 -2 -20 5 -43 14 -22 9 -48 14 -56 10 -8
-3 -15 -1 -15 5 0 5 -19 31 -43 57 -74 81 -74 82 -39 82 17 0 55 -9 84 -21z
m-3767 -35 c42 -20 55 -55 55 -150 l0 -74 -40 0 -39 0 -3 83 -3 82 -35 0 -35
0 -3 -82 -3 -83 -39 0 -40 0 0 115 0 115 41 0 c24 0 38 -4 34 -10 -8 -14 -2
-13 31 5 36 19 39 19 79 -1z m524 -19 c22 -21 25 -35 29 -115 l4 -90 -40 0
-41 0 -3 83 -3 82 -30 3 c-42 5 -55 -19 -55 -100 l0 -68 -35 0 -35 0 0 115 0
115 35 0 c19 0 35 -4 35 -10 0 -5 15 -3 33 5 40 18 74 11 106 -20z m780 24
c29 -10 51 -35 51 -57 0 -16 -50 -20 -65 -6 -18 18 -55 18 -55 0 0 -7 20 -19
45 -26 44 -12 85 -49 85 -76 0 -24 -45 -63 -80 -69 -41 -7 -95 18 -118 52 -13
21 -12 23 14 29 16 4 34 2 43 -5 28 -20 40 -23 58 -17 14 6 15 9 2 20 -8 7
-33 18 -57 25 -70 20 -84 93 -24 125 33 18 59 20 101 5z m421 -29 c0 -33 -3
-40 -19 -40 -46 0 -51 -9 -51 -86 l0 -74 -40 0 -40 0 0 115 0 115 40 0 c23 0
40 -5 40 -11 0 -8 4 -8 13 -1 6 5 21 12 32 15 11 2 21 5 23 6 1 0 2 -17 2 -39z
m-1960 -85 l0 -115 -35 0 -35 0 0 115 0 115 35 0 35 0 0 -115z m1190 42 c0
-77 9 -97 45 -97 36 0 45 20 45 97 l0 73 35 0 35 0 0 -115 0 -115 -35 0 c-19
0 -35 4 -35 9 0 6 -16 3 -35 -5 -43 -18 -79 -10 -105 23 -17 21 -20 41 -20
114 l0 89 35 0 35 0 0 -73z m879 18 c12 -31 21 -60 21 -65 0 -29 19 -2 39 55
l23 65 40 0 c28 0 39 -4 35 -12 -2 -7 -35 -84 -72 -170 l-68 -158 -39 0 c-21
0 -38 2 -38 5 0 3 11 28 25 56 l26 50 -42 102 c-22 55 -43 107 -46 114 -4 9 6
13 35 13 40 0 41 -1 61 -55z m1969 -244 c105 -54 153 -172 118 -292 -34 -115
-138 -203 -228 -192 -55 6 -106 32 -87 44 11 7 11 9 -3 9 -10 0 -18 7 -18 15
0 8 -7 15 -16 15 -8 0 -12 5 -9 10 3 6 2 10 -4 10 -5 0 -13 10 -16 21 -5 16
-9 18 -15 9 -8 -13 -14 6 -25 94 -10 74 26 177 75 216 78 62 159 76 228 41z
m228 -898 c34 -60 104 -150 104 -134 0 24 51 -23 96 -87 30 -42 42 -67 34 -72
-7 -5 -6 -11 5 -20 13 -11 15 -10 9 4 -11 29 3 17 47 -41 24 -32 67 -86 96
-121 46 -54 53 -68 53 -105 0 -51 -6 -60 -31 -46 -13 7 -19 6 -19 -1 0 -6 -20
1 -45 16 -35 20 -63 27 -125 31 -106 8 -185 -9 -302 -63 -54 -25 -103 -42
-109 -38 -8 4 -9 3 -5 -4 5 -9 -6 -10 -41 -5 -52 6 -73 18 -73 39 0 19 162
238 222 300 l49 51 -25 62 c-21 52 -22 62 -9 59 9 -2 21 -12 27 -23 6 -11 19
-30 28 -43 16 -22 17 -23 27 -3 8 14 7 29 -4 58 -14 34 -14 36 0 19 8 -11 15
-24 15 -29 0 -5 14 5 31 22 l31 32 -43 55 c-58 73 -66 85 -74 112 -10 35 1 26
31 -25z"/>
<path d="M4157 3150 c-40 -32 -51 -79 -31 -129 18 -47 38 -61 84 -61 42 0 67
15 85 50 51 100 -54 206 -138 140z"/>
<path d="M5334 3152 c-81 -65 -45 -192 54 -192 86 0 126 117 63 181 -34 34
-84 39 -117 11z"/>
<path d="M4630 3180 l0 -70 54 0 c75 0 108 36 86 94 -11 31 -45 46 -101 46
l-39 0 0 -70z"/>
<path d="M2999 3155 c-56 -30 -64 -129 -14 -172 37 -32 94 -31 128 2 84 85
-10 226 -114 170z"/>
<path d="M3681 3144 c-27 -23 -31 -32 -31 -78 0 -68 30 -106 85 -106 73 0 112
50 100 127 -5 35 -13 48 -38 64 -43 26 -80 24 -116 -7z"/>
<path d="M4983 3158 c-56 -27 -66 -126 -17 -175 22 -22 32 -25 72 -20 53 6 78
29 88 82 16 85 -67 150 -143 113z"/>
<path d="M5680 3157 c-57 -29 -68 -120 -21 -168 41 -41 91 -40 133 1 28 28 30
35 26 82 -4 42 -11 56 -34 75 -32 26 -67 29 -104 10z"/>
<path d="M6040 2030 c-72 -12 -120 -36 -120 -59 0 -15 7 -21 23 -22 21 -1 21
-1 -3 -9 -14 -4 -18 -8 -9 -9 19 -1 39 -42 39 -80 0 -36 15 -49 65 -56 45 -6
52 -3 84 43 21 30 69 58 115 67 20 5 46 24 46 35 0 13 -51 30 -91 30 -28 0
-38 4 -33 11 5 9 -4 10 -31 5 -25 -5 -35 -4 -30 3 3 6 15 11 25 11 10 0 25 3
34 6 29 11 16 20 -26 17 -35 -2 -38 -1 -18 6 l25 9 -25 0 c-14 0 -45 -4 -70
-8z"/>
<path d="M754 2001 c-39 -24 -44 -32 -38 -58 6 -21 6 -21 41 3 44 29 60 30 68
4 6 -19 16 -24 42 -21 6 1 14 -3 18 -9 3 -5 1 -10 -6 -10 -7 0 -32 -9 -56 -21
-36 -18 -43 -25 -43 -51 0 -19 10 -40 29 -59 30 -29 59 -40 44 -16 -4 6 11 -3
34 -20 22 -18 46 -33 51 -33 19 0 23 19 11 42 -22 41 -28 86 -13 99 18 15 18
28 -1 25 -22 -3 -49 -43 -32 -49 6 -2 -3 -4 -20 -5 -40 -1 -41 4 -8 34 19 17
25 33 25 63 0 53 -7 69 -41 86 -38 20 -68 19 -105 -4z"/>
<path d="M1618 1932 c-26 -8 -45 -19 -41 -24 3 -6 -3 -7 -16 -3 -41 13 -22
-21 24 -43 52 -25 59 -27 49 -10 -5 8 -2 9 10 5 10 -4 20 -7 22 -7 3 0 9 -11
14 -25 8 -20 16 -25 45 -25 21 0 34 4 30 10 -3 5 3 18 15 30 11 11 20 25 20
30 0 6 6 10 13 10 8 1 7 5 -4 13 -8 7 -18 20 -22 30 -3 9 -17 17 -29 18 -13 0
-37 2 -53 3 -17 2 -52 -3 -77 -12z"/>
<path d="M1070 1820 c-7 -14 -7 -26 -1 -39 6 -10 7 -22 3 -26 -4 -5 0 -6 8 -3
12 4 15 -4 15 -37 0 -30 9 -57 32 -93 18 -29 30 -58 27 -65 -5 -13 22 -43 35
-41 10 2 51 -59 45 -68 -3 -5 -1 -7 3 -6 10 3 83 -57 83 -68 0 -3 -7 -3 -16 0
-9 3 -12 2 -9 -5 4 -6 14 -8 21 -5 9 3 27 -8 46 -29 24 -28 33 -33 44 -24 11
9 9 19 -13 58 -43 75 -104 163 -171 251 l-64 82 21 19 c25 24 25 23 4 40 -14
12 -16 12 -11 -2 4 -9 -2 -23 -12 -32 -17 -14 -19 -14 -24 0 -4 9 -4 18 -1 21
3 3 5 0 5 -6 0 -6 7 -9 15 -6 12 5 13 10 4 20 -16 20 -39 17 -40 -3 0 -12 -2
-13 -6 -5 -3 7 2 21 12 32 14 15 14 21 3 39 -16 27 -44 27 -58 1z"/>
<path d="M1200 1719 c-18 -12 -29 -24 -23 -27 5 -4 14 -14 19 -23 8 -15 10
-16 24 -1 13 14 12 15 -2 10 -10 -4 -19 -1 -22 9 -10 24 -1 25 25 4 19 -15 21
-22 12 -32 -14 -14 10 -56 59 -101 16 -14 27 -32 26 -38 -2 -7 3 -15 11 -18 9
-3 11 0 6 8 -6 9 -4 11 4 6 7 -5 10 -15 7 -23 -3 -8 -1 -11 5 -8 5 4 7 16 4
28 l-6 22 20 -22 c23 -28 39 -29 57 -5 15 20 19 92 4 92 -18 0 -97 65 -115 93
-9 16 -19 26 -22 23 -3 -3 -18 1 -33 9 -24 12 -30 12 -60 -6z"/>
<path d="M6930 2169 c-117 -47 -153 -235 -63 -325 29 -29 40 -34 82 -34 104 0
186 107 165 216 -8 45 -64 94 -107 94 -49 0 -103 -41 -111 -85 -16 -81 21
-155 77 -155 31 0 87 47 87 74 0 31 -24 65 -53 76 -41 14 -41 14 -79 -17 -33
-28 -33 -28 -17 -3 9 14 29 29 45 35 16 5 32 14 35 18 9 13 46 -1 76 -29 22
-21 27 -33 27 -76 0 -46 -4 -54 -37 -84 -67 -61 -158 -39 -204 49 -19 38 -13
133 12 171 27 41 81 69 134 69 33 -1 40 2 26 7 -27 11 -65 11 -95 -1z"/>
<path d="M7610 3609 c-79 -15 -182 -53 -188 -69 -3 -8 -10 -18 -15 -21 -15
-10 2 -29 25 -29 16 0 18 -3 9 -14 -8 -10 -9 -15 -1 -18 10 -3 27 -56 34 -103
6 -43 19 -85 30 -94 34 -27 196 -14 196 16 0 7 8 13 18 13 14 0 15 2 2 10 -10
7 -11 12 -4 18 6 4 13 14 16 23 7 19 68 53 68 37 0 -5 15 -1 33 10 17 11 44
22 58 25 14 4 38 16 53 28 24 19 26 23 12 31 -8 5 -19 8 -22 8 -4 -1 -10 4
-15 12 -5 8 -29 13 -68 13 -33 -1 -55 2 -49 6 6 4 -5 10 -25 13 -20 3 -53 8
-72 12 -52 8 -34 21 40 29 77 8 77 25 0 25 -71 0 -103 12 -55 21 l35 6 -35 1
c-19 0 -55 -4 -80 -9z"/>
<path d="M22 3489 c-33 -13 -17 -29 29 -29 24 0 38 -4 34 -10 -3 -5 -24 -10
-46 -10 -38 0 -39 -1 -39 -36 0 -31 2 -35 21 -29 22 7 22 1 1 -54 -4 -10 -1
-13 12 -8 10 4 20 7 22 7 2 0 5 17 5 38 1 35 2 34 10 -13 5 -32 4 -54 -2 -60
-7 -7 -8 -3 -4 10 5 16 5 17 -3 5 -6 -8 -8 -18 -6 -22 11 -18 -28 -20 -42 -2
-14 18 -14 17 -4 -5 10 -19 17 -22 42 -17 18 3 37 1 44 -5 11 -9 14 -7 14 9 0
30 21 72 36 72 18 0 29 21 15 29 -7 5 -2 12 16 20 l28 13 -23 18 c-12 10 -22
25 -22 34 0 34 -92 64 -138 45z"/>
<path d="M366 592 c-29 -4 -29 -4 13 -23 56 -25 85 -49 125 -101 36 -47 50
-94 56 -183 4 -61 -1 -83 -25 -119 -22 -33 -23 -36 -6 -36 10 0 21 -7 25 -15
10 -26 -5 -45 -35 -45 -27 0 -29 3 -30 38 -1 31 -3 29 -9 -18 -14 -90 -13 -90
216 -90 l192 0 7 31 c6 24 2 36 -14 52 -19 19 -21 20 -21 4 0 -28 -44 -18 -48
11 -4 27 23 40 48 24 56 -35 40 83 -24 173 -20 28 -59 68 -87 90 -29 22 -55
47 -57 55 -5 13 -3 13 14 0 17 -14 18 -14 6 2 -8 10 -19 16 -25 15 -7 -1 -11
4 -10 10 2 7 -3 12 -10 10 -6 -1 -11 4 -10 10 2 7 -2 12 -9 10 -7 -1 -12 5
-13 13 0 8 -8 14 -17 14 -10 -1 -16 3 -15 9 6 31 -149 69 -237 59z"/>
<path d="M7510 357 c-14 -7 -33 -29 -44 -51 -16 -32 -17 -44 -7 -75 15 -51 52
-83 97 -85 28 -1 38 4 44 20 7 18 5 20 -20 16 -55 -8 -99 44 -95 110 3 53 54
77 89 42 22 -21 20 -27 -5 -21 -24 6 -69 -32 -69 -58 0 -26 46 -66 67 -58 30
10 42 23 64 69 25 50 18 67 -38 91 -40 16 -51 16 -83 0z"/>
</g>
</svg>
